<mxfile host="app.diagrams.net" modified="2021-10-28T01:26:37.091Z" agent="5.0 (Windows NT 10.0; Win64; x64) AppleWebKit/537.36 (KHTML, like Gecko) Chrome/95.0.4638.54 Safari/537.36" etag="o8ECwyg8ia22i7QjZyAM" version="15.5.9" type="github">
  <diagram id="SYj_wnHrIE_FJC5tqYKO" name="Page-1">
    <mxGraphModel dx="1422" dy="-38" grid="1" gridSize="10" guides="1" tooltips="1" connect="1" arrows="1" fold="1" page="0" pageScale="1" pageWidth="827" pageHeight="1169" background="none" math="0" shadow="0">
      <root>
        <mxCell id="0" />
        <mxCell id="1" parent="0" />
        <mxCell id="NOhWeFgQq2WazlrZW2lu-92" style="edgeStyle=orthogonalEdgeStyle;rounded=1;orthogonalLoop=1;jettySize=auto;html=1;exitX=0;exitY=1;exitDx=0;exitDy=0;entryX=0.5;entryY=0;entryDx=0;entryDy=0;dashed=1;fontSize=16;fontColor=#FF0000;strokeColor=#000099;" parent="1" source="NOhWeFgQq2WazlrZW2lu-84" target="NOhWeFgQq2WazlrZW2lu-85" edge="1">
          <mxGeometry relative="1" as="geometry" />
        </mxCell>
        <mxCell id="NOhWeFgQq2WazlrZW2lu-93" style="edgeStyle=orthogonalEdgeStyle;rounded=1;orthogonalLoop=1;jettySize=auto;html=1;exitX=0.25;exitY=1;exitDx=0;exitDy=0;entryX=1;entryY=0.5;entryDx=0;entryDy=0;dashed=1;fontSize=16;fontColor=#FF0000;strokeColor=#CC6600;" parent="1" source="NOhWeFgQq2WazlrZW2lu-84" target="NOhWeFgQq2WazlrZW2lu-88" edge="1">
          <mxGeometry relative="1" as="geometry" />
        </mxCell>
        <mxCell id="NOhWeFgQq2WazlrZW2lu-94" style="edgeStyle=orthogonalEdgeStyle;rounded=1;orthogonalLoop=1;jettySize=auto;html=1;exitX=0.75;exitY=1;exitDx=0;exitDy=0;entryX=0;entryY=0.5;entryDx=0;entryDy=0;dashed=1;fontSize=16;fontColor=#FF0000;strokeColor=#6600CC;" parent="1" source="NOhWeFgQq2WazlrZW2lu-84" target="NOhWeFgQq2WazlrZW2lu-86" edge="1">
          <mxGeometry relative="1" as="geometry" />
        </mxCell>
        <mxCell id="NOhWeFgQq2WazlrZW2lu-95" style="edgeStyle=orthogonalEdgeStyle;rounded=1;orthogonalLoop=1;jettySize=auto;html=1;exitX=1;exitY=1;exitDx=0;exitDy=0;dashed=1;fontSize=16;fontColor=#FF0000;strokeColor=#006600;" parent="1" source="NOhWeFgQq2WazlrZW2lu-84" target="NOhWeFgQq2WazlrZW2lu-89" edge="1">
          <mxGeometry relative="1" as="geometry" />
        </mxCell>
        <mxCell id="NOhWeFgQq2WazlrZW2lu-84" value="&lt;font color=&quot;#ffffff&quot; size=&quot;1&quot;&gt;&lt;b style=&quot;font-size: 16px&quot;&gt;用户创建主题&lt;/b&gt;&lt;/font&gt;" style="rounded=0;whiteSpace=wrap;html=1;fillColor=#000059;strokeColor=#000059;glass=0;shadow=1;sketch=0;" parent="1" vertex="1">
          <mxGeometry x="680" y="800" width="120" height="60" as="geometry" />
        </mxCell>
        <mxCell id="NOhWeFgQq2WazlrZW2lu-187" style="edgeStyle=orthogonalEdgeStyle;rounded=1;orthogonalLoop=1;jettySize=auto;html=1;exitX=0.5;exitY=1;exitDx=0;exitDy=0;entryX=0.25;entryY=0;entryDx=0;entryDy=0;dashed=1;fontSize=16;fontColor=#FFFFFF;endSize=6;strokeColor=#000099;strokeWidth=1;" parent="1" source="NOhWeFgQq2WazlrZW2lu-85" target="NOhWeFgQq2WazlrZW2lu-96" edge="1">
          <mxGeometry relative="1" as="geometry" />
        </mxCell>
        <mxCell id="NOhWeFgQq2WazlrZW2lu-85" value="&lt;font color=&quot;#ffffff&quot;&gt;&lt;span style=&quot;font-size: 16px&quot;&gt;&lt;b&gt;主题名称&lt;/b&gt;&lt;/span&gt;&lt;/font&gt;" style="rounded=0;whiteSpace=wrap;html=1;fillColor=#000059;strokeColor=#000059;glass=0;shadow=1;sketch=0;" parent="1" vertex="1">
          <mxGeometry x="200" y="1000" width="120" height="60" as="geometry" />
        </mxCell>
        <mxCell id="ibDMZoKI3LNMyUyC24gn-2" style="edgeStyle=orthogonalEdgeStyle;rounded=0;orthogonalLoop=1;jettySize=auto;html=1;exitX=0.5;exitY=1;exitDx=0;exitDy=0;entryX=0.75;entryY=0;entryDx=0;entryDy=0;dashed=1;strokeColor=#6600CC;" parent="1" source="NOhWeFgQq2WazlrZW2lu-86" target="NOhWeFgQq2WazlrZW2lu-96" edge="1">
          <mxGeometry relative="1" as="geometry" />
        </mxCell>
        <mxCell id="NOhWeFgQq2WazlrZW2lu-86" value="&lt;font color=&quot;#ffffff&quot;&gt;&lt;span style=&quot;font-size: 16px&quot;&gt;&lt;b&gt;主题标签&lt;/b&gt;&lt;/span&gt;&lt;/font&gt;" style="rounded=0;whiteSpace=wrap;html=1;fillColor=#000059;strokeColor=#000059;glass=0;shadow=1;sketch=0;" parent="1" vertex="1">
          <mxGeometry x="840" y="1000" width="120" height="60" as="geometry" />
        </mxCell>
        <mxCell id="ibDMZoKI3LNMyUyC24gn-3" style="edgeStyle=orthogonalEdgeStyle;rounded=0;orthogonalLoop=1;jettySize=auto;html=1;exitX=0.5;exitY=1;exitDx=0;exitDy=0;entryX=0.5;entryY=0;entryDx=0;entryDy=0;dashed=1;strokeColor=#CC6600;" parent="1" source="NOhWeFgQq2WazlrZW2lu-88" target="NOhWeFgQq2WazlrZW2lu-96" edge="1">
          <mxGeometry relative="1" as="geometry" />
        </mxCell>
        <mxCell id="NOhWeFgQq2WazlrZW2lu-88" value="&lt;font color=&quot;#ffffff&quot;&gt;&lt;span style=&quot;font-size: 16px&quot;&gt;&lt;b&gt;主题描述&lt;/b&gt;&lt;/span&gt;&lt;/font&gt;" style="rounded=0;whiteSpace=wrap;html=1;fillColor=#000059;strokeColor=#000059;glass=0;shadow=1;sketch=0;" parent="1" vertex="1">
          <mxGeometry x="520" y="1000" width="120" height="60" as="geometry" />
        </mxCell>
        <mxCell id="ibDMZoKI3LNMyUyC24gn-1" style="edgeStyle=orthogonalEdgeStyle;rounded=0;orthogonalLoop=1;jettySize=auto;html=1;exitX=0.5;exitY=1;exitDx=0;exitDy=0;entryX=0.5;entryY=0;entryDx=0;entryDy=0;dashed=1;strokeColor=#006600;" parent="1" source="NOhWeFgQq2WazlrZW2lu-89" target="NOhWeFgQq2WazlrZW2lu-109" edge="1">
          <mxGeometry relative="1" as="geometry" />
        </mxCell>
        <mxCell id="NOhWeFgQq2WazlrZW2lu-89" value="&lt;b&gt;相关文档&lt;/b&gt;" style="rounded=0;whiteSpace=wrap;html=1;fontSize=16;fontColor=#FFFFFF;strokeColor=#000059;fillColor=#000059;glass=0;shadow=1;sketch=0;" parent="1" vertex="1">
          <mxGeometry x="1160" y="1000" width="120" height="60" as="geometry" />
        </mxCell>
        <mxCell id="NOhWeFgQq2WazlrZW2lu-217" style="edgeStyle=orthogonalEdgeStyle;rounded=1;orthogonalLoop=1;jettySize=auto;html=1;exitX=0.5;exitY=1;exitDx=0;exitDy=0;entryX=0.5;entryY=0;entryDx=0;entryDy=0;dashed=1;fontSize=16;fontColor=#FFFFFF;endSize=6;strokeColor=#006600;strokeWidth=1;" parent="1" source="NOhWeFgQq2WazlrZW2lu-96" target="NOhWeFgQq2WazlrZW2lu-125" edge="1">
          <mxGeometry relative="1" as="geometry" />
        </mxCell>
        <mxCell id="NOhWeFgQq2WazlrZW2lu-226" style="edgeStyle=orthogonalEdgeStyle;rounded=1;orthogonalLoop=1;jettySize=auto;html=1;exitX=0;exitY=0.5;exitDx=0;exitDy=0;dashed=1;fontSize=16;fontColor=#FFFFFF;endSize=6;strokeColor=#6600CC;strokeWidth=1;entryX=0.75;entryY=0;entryDx=0;entryDy=0;" parent="1" source="NOhWeFgQq2WazlrZW2lu-96" target="NOhWeFgQq2WazlrZW2lu-98" edge="1">
          <mxGeometry relative="1" as="geometry">
            <mxPoint x="320" y="1320" as="targetPoint" />
          </mxGeometry>
        </mxCell>
        <mxCell id="NOhWeFgQq2WazlrZW2lu-277" style="edgeStyle=orthogonalEdgeStyle;rounded=1;orthogonalLoop=1;jettySize=auto;html=1;exitX=0.25;exitY=1;exitDx=0;exitDy=0;entryX=0.5;entryY=0;entryDx=0;entryDy=0;dashed=1;fontSize=16;fontColor=#000000;endSize=6;strokeColor=#006600;strokeWidth=1;" parent="1" source="NOhWeFgQq2WazlrZW2lu-96" target="NOhWeFgQq2WazlrZW2lu-174" edge="1">
          <mxGeometry relative="1" as="geometry">
            <Array as="points">
              <mxPoint x="550" y="1520" />
              <mxPoint x="260" y="1520" />
            </Array>
          </mxGeometry>
        </mxCell>
        <mxCell id="NOhWeFgQq2WazlrZW2lu-279" style="edgeStyle=orthogonalEdgeStyle;rounded=1;orthogonalLoop=1;jettySize=auto;html=1;exitX=0.75;exitY=1;exitDx=0;exitDy=0;entryX=0.5;entryY=0;entryDx=0;entryDy=0;dashed=1;fontSize=16;fontColor=#000000;endSize=6;strokeColor=#006600;strokeWidth=1;" parent="1" source="NOhWeFgQq2WazlrZW2lu-96" target="NOhWeFgQq2WazlrZW2lu-133" edge="1">
          <mxGeometry relative="1" as="geometry">
            <Array as="points">
              <mxPoint x="610" y="1520" />
              <mxPoint x="900" y="1520" />
            </Array>
          </mxGeometry>
        </mxCell>
        <mxCell id="NOhWeFgQq2WazlrZW2lu-287" style="edgeStyle=orthogonalEdgeStyle;rounded=1;orthogonalLoop=1;jettySize=auto;html=1;exitX=1;exitY=1;exitDx=0;exitDy=0;entryX=0;entryY=0.5;entryDx=0;entryDy=0;dashed=1;fontSize=16;fontColor=#000000;endSize=6;strokeColor=#006600;strokeWidth=1;" parent="1" source="NOhWeFgQq2WazlrZW2lu-96" target="NOhWeFgQq2WazlrZW2lu-127" edge="1">
          <mxGeometry relative="1" as="geometry" />
        </mxCell>
        <mxCell id="NOhWeFgQq2WazlrZW2lu-289" style="edgeStyle=orthogonalEdgeStyle;rounded=1;orthogonalLoop=1;jettySize=auto;html=1;exitX=1;exitY=1;exitDx=0;exitDy=0;entryX=0;entryY=0.5;entryDx=0;entryDy=0;dashed=1;fontSize=16;fontColor=#000000;endSize=6;strokeColor=#006600;strokeWidth=1;" parent="1" source="NOhWeFgQq2WazlrZW2lu-96" target="NOhWeFgQq2WazlrZW2lu-190" edge="1">
          <mxGeometry relative="1" as="geometry">
            <Array as="points">
              <mxPoint x="680" y="1260" />
              <mxPoint x="680" y="1350" />
            </Array>
          </mxGeometry>
        </mxCell>
        <mxCell id="NOhWeFgQq2WazlrZW2lu-291" style="edgeStyle=orthogonalEdgeStyle;rounded=1;orthogonalLoop=1;jettySize=auto;html=1;exitX=0;exitY=0.75;exitDx=0;exitDy=0;entryX=0.5;entryY=0;entryDx=0;entryDy=0;dashed=1;fontSize=16;fontColor=#000000;endSize=6;strokeColor=#FF00FF;strokeWidth=1;" parent="1" source="NOhWeFgQq2WazlrZW2lu-96" target="NOhWeFgQq2WazlrZW2lu-99" edge="1">
          <mxGeometry relative="1" as="geometry">
            <Array as="points">
              <mxPoint x="400" y="1245" />
              <mxPoint x="400" y="1410" />
              <mxPoint x="260" y="1410" />
            </Array>
          </mxGeometry>
        </mxCell>
        <mxCell id="NOhWeFgQq2WazlrZW2lu-293" style="edgeStyle=orthogonalEdgeStyle;rounded=1;orthogonalLoop=1;jettySize=auto;html=1;exitX=0;exitY=1;exitDx=0;exitDy=0;entryX=1;entryY=0.5;entryDx=0;entryDy=0;dashed=1;fontSize=16;fontColor=#000000;endSize=6;strokeColor=#006600;strokeWidth=1;" parent="1" source="NOhWeFgQq2WazlrZW2lu-96" target="NOhWeFgQq2WazlrZW2lu-99" edge="1">
          <mxGeometry relative="1" as="geometry" />
        </mxCell>
        <mxCell id="NOhWeFgQq2WazlrZW2lu-299" value="新词" style="edgeLabel;html=1;align=center;verticalAlign=middle;resizable=0;points=[];fontSize=16;fontColor=#000000;" parent="NOhWeFgQq2WazlrZW2lu-293" vertex="1" connectable="0">
          <mxGeometry x="0.1568" relative="1" as="geometry">
            <mxPoint x="-1" as="offset" />
          </mxGeometry>
        </mxCell>
        <mxCell id="NOhWeFgQq2WazlrZW2lu-295" style="edgeStyle=orthogonalEdgeStyle;rounded=1;orthogonalLoop=1;jettySize=auto;html=1;exitX=0;exitY=0.25;exitDx=0;exitDy=0;entryX=0.5;entryY=0;entryDx=0;entryDy=0;dashed=1;fontSize=16;fontColor=#000000;endSize=6;strokeColor=#CC6600;strokeWidth=1;" parent="1" source="NOhWeFgQq2WazlrZW2lu-96" target="NOhWeFgQq2WazlrZW2lu-98" edge="1">
          <mxGeometry relative="1" as="geometry" />
        </mxCell>
        <mxCell id="NOhWeFgQq2WazlrZW2lu-298" style="edgeStyle=orthogonalEdgeStyle;rounded=1;orthogonalLoop=1;jettySize=auto;html=1;exitX=0;exitY=0;exitDx=0;exitDy=0;entryX=0.25;entryY=0;entryDx=0;entryDy=0;dashed=1;fontSize=16;fontColor=#000000;endSize=6;strokeColor=#000099;strokeWidth=1;" parent="1" source="NOhWeFgQq2WazlrZW2lu-96" target="NOhWeFgQq2WazlrZW2lu-98" edge="1">
          <mxGeometry relative="1" as="geometry">
            <Array as="points">
              <mxPoint x="230" y="1200" />
            </Array>
          </mxGeometry>
        </mxCell>
        <mxCell id="NOhWeFgQq2WazlrZW2lu-96" value="&lt;b&gt;AnyDATA&lt;/b&gt;" style="rounded=0;whiteSpace=wrap;html=1;fontSize=16;fontColor=#FFFFFF;strokeColor=#000059;fillColor=#000059;glass=0;shadow=1;sketch=0;" parent="1" vertex="1">
          <mxGeometry x="520" y="1200" width="120" height="60" as="geometry" />
        </mxCell>
        <mxCell id="NOhWeFgQq2WazlrZW2lu-273" style="edgeStyle=orthogonalEdgeStyle;rounded=1;orthogonalLoop=1;jettySize=auto;html=1;exitX=0;exitY=0.5;exitDx=0;exitDy=0;entryX=0.25;entryY=1;entryDx=0;entryDy=0;dashed=1;fontSize=16;fontColor=#000000;endSize=6;strokeColor=#FF0000;strokeWidth=1;" parent="1" source="NOhWeFgQq2WazlrZW2lu-98" target="NOhWeFgQq2WazlrZW2lu-125" edge="1">
          <mxGeometry relative="1" as="geometry">
            <Array as="points">
              <mxPoint x="80" y="1351" />
              <mxPoint x="80" y="1720" />
              <mxPoint x="550" y="1720" />
            </Array>
          </mxGeometry>
        </mxCell>
        <mxCell id="NOhWeFgQq2WazlrZW2lu-98" value="&lt;b&gt;实体：Subject&lt;/b&gt;" style="rounded=0;whiteSpace=wrap;html=1;fontSize=16;fontColor=#FFFFFF;strokeColor=#000059;fillColor=#000059;shadow=1;" parent="1" vertex="1">
          <mxGeometry x="200" y="1321" width="120" height="60" as="geometry" />
        </mxCell>
        <mxCell id="NOhWeFgQq2WazlrZW2lu-258" style="edgeStyle=orthogonalEdgeStyle;rounded=1;orthogonalLoop=1;jettySize=auto;html=1;exitX=0;exitY=0.75;exitDx=0;exitDy=0;entryX=0;entryY=0.25;entryDx=0;entryDy=0;dashed=1;fontSize=16;fontColor=#000000;endSize=6;strokeColor=#FF0000;strokeWidth=1;" parent="1" source="NOhWeFgQq2WazlrZW2lu-99" target="NOhWeFgQq2WazlrZW2lu-174" edge="1">
          <mxGeometry relative="1" as="geometry">
            <Array as="points">
              <mxPoint x="160" y="1486" />
              <mxPoint x="160" y="1576" />
            </Array>
          </mxGeometry>
        </mxCell>
        <mxCell id="NOhWeFgQq2WazlrZW2lu-272" style="edgeStyle=orthogonalEdgeStyle;rounded=1;orthogonalLoop=1;jettySize=auto;html=1;exitX=0;exitY=0.25;exitDx=0;exitDy=0;entryX=0;entryY=1;entryDx=0;entryDy=0;dashed=1;fontSize=16;fontColor=#000000;endSize=6;strokeColor=#FF0000;strokeWidth=1;" parent="1" source="NOhWeFgQq2WazlrZW2lu-99" target="NOhWeFgQq2WazlrZW2lu-125" edge="1">
          <mxGeometry relative="1" as="geometry">
            <Array as="points">
              <mxPoint x="120" y="1456" />
              <mxPoint x="120" y="1680" />
              <mxPoint x="520" y="1680" />
            </Array>
          </mxGeometry>
        </mxCell>
        <mxCell id="NOhWeFgQq2WazlrZW2lu-99" value="&lt;b&gt;实体：Lable&lt;/b&gt;" style="rounded=0;whiteSpace=wrap;html=1;fontSize=16;fontColor=#FFFFFF;strokeColor=#000059;fillColor=#000059;glass=0;shadow=1;sketch=0;" parent="1" vertex="1">
          <mxGeometry x="200" y="1441" width="120" height="60" as="geometry" />
        </mxCell>
        <mxCell id="NOhWeFgQq2WazlrZW2lu-184" style="edgeStyle=orthogonalEdgeStyle;rounded=1;orthogonalLoop=1;jettySize=auto;html=1;exitX=0.5;exitY=1;exitDx=0;exitDy=0;entryX=0.5;entryY=0;entryDx=0;entryDy=0;dashed=1;fontSize=16;fontColor=#FFFFFF;endSize=6;strokeColor=#FF00FF;strokeWidth=1;" parent="1" source="NOhWeFgQq2WazlrZW2lu-109" target="NOhWeFgQq2WazlrZW2lu-111" edge="1">
          <mxGeometry relative="1" as="geometry" />
        </mxCell>
        <mxCell id="NOhWeFgQq2WazlrZW2lu-259" style="edgeStyle=orthogonalEdgeStyle;rounded=1;orthogonalLoop=1;jettySize=auto;html=1;exitX=0;exitY=0.5;exitDx=0;exitDy=0;entryX=1;entryY=0.5;entryDx=0;entryDy=0;dashed=1;fontSize=16;fontColor=#000000;endSize=6;strokeColor=#006600;strokeWidth=1;" parent="1" source="NOhWeFgQq2WazlrZW2lu-109" target="NOhWeFgQq2WazlrZW2lu-96" edge="1">
          <mxGeometry relative="1" as="geometry" />
        </mxCell>
        <mxCell id="QeGgHGThN3c2kQZYcLQP-1" style="edgeStyle=orthogonalEdgeStyle;rounded=1;orthogonalLoop=1;jettySize=auto;html=1;exitX=1;exitY=0.5;exitDx=0;exitDy=0;entryX=1;entryY=0.5;entryDx=0;entryDy=0;strokeColor=#006600;dashed=1;" edge="1" parent="1" source="NOhWeFgQq2WazlrZW2lu-109" target="NOhWeFgQq2WazlrZW2lu-89">
          <mxGeometry relative="1" as="geometry">
            <Array as="points">
              <mxPoint x="1320" y="1230" />
              <mxPoint x="1320" y="1030" />
            </Array>
          </mxGeometry>
        </mxCell>
        <mxCell id="NOhWeFgQq2WazlrZW2lu-109" value="AnyShare" style="rounded=0;whiteSpace=wrap;html=1;fontSize=16;fontColor=#FFFFFF;strokeColor=#000059;fillColor=#000059;glass=0;shadow=1;sketch=0;" parent="1" vertex="1">
          <mxGeometry x="1160" y="1200" width="120" height="60" as="geometry" />
        </mxCell>
        <mxCell id="NOhWeFgQq2WazlrZW2lu-297" style="edgeStyle=orthogonalEdgeStyle;rounded=1;orthogonalLoop=1;jettySize=auto;html=1;exitX=0;exitY=0.5;exitDx=0;exitDy=0;entryX=1;entryY=0.75;entryDx=0;entryDy=0;dashed=1;fontSize=16;fontColor=#000000;endSize=6;strokeColor=#FF00FF;strokeWidth=1;" parent="1" source="NOhWeFgQq2WazlrZW2lu-111" target="NOhWeFgQq2WazlrZW2lu-96" edge="1">
          <mxGeometry relative="1" as="geometry">
            <Array as="points">
              <mxPoint x="1120" y="1351" />
              <mxPoint x="1120" y="1245" />
            </Array>
          </mxGeometry>
        </mxCell>
        <mxCell id="NOhWeFgQq2WazlrZW2lu-111" value="标签" style="rounded=0;whiteSpace=wrap;html=1;fontSize=16;fontColor=#FFFFFF;strokeColor=#000059;fillColor=#000059;glass=0;shadow=1;sketch=0;" parent="1" vertex="1">
          <mxGeometry x="1160" y="1321" width="120" height="60" as="geometry" />
        </mxCell>
        <mxCell id="NOhWeFgQq2WazlrZW2lu-125" value="实体：Docment" style="rounded=0;whiteSpace=wrap;html=1;fontSize=16;fontColor=#FFFFFF;strokeColor=#000059;fillColor=#000059;glass=0;shadow=1;sketch=0;" parent="1" vertex="1">
          <mxGeometry x="520" y="1560" width="120" height="60" as="geometry" />
        </mxCell>
        <mxCell id="NOhWeFgQq2WazlrZW2lu-256" style="edgeStyle=orthogonalEdgeStyle;rounded=1;orthogonalLoop=1;jettySize=auto;html=1;exitX=1;exitY=0.75;exitDx=0;exitDy=0;entryX=1;entryY=0.25;entryDx=0;entryDy=0;dashed=1;fontSize=16;fontColor=#000000;endSize=6;strokeColor=#FF0000;strokeWidth=1;" parent="1" source="NOhWeFgQq2WazlrZW2lu-127" target="NOhWeFgQq2WazlrZW2lu-133" edge="1">
          <mxGeometry relative="1" as="geometry">
            <Array as="points">
              <mxPoint x="1000" y="1485" />
              <mxPoint x="1000" y="1575" />
            </Array>
          </mxGeometry>
        </mxCell>
        <mxCell id="NOhWeFgQq2WazlrZW2lu-257" style="edgeStyle=orthogonalEdgeStyle;rounded=1;orthogonalLoop=1;jettySize=auto;html=1;exitX=1;exitY=0.25;exitDx=0;exitDy=0;entryX=1;entryY=1;entryDx=0;entryDy=0;dashed=1;fontSize=16;fontColor=#000000;endSize=6;strokeColor=#FF0000;strokeWidth=1;" parent="1" source="NOhWeFgQq2WazlrZW2lu-127" target="NOhWeFgQq2WazlrZW2lu-125" edge="1">
          <mxGeometry relative="1" as="geometry">
            <Array as="points">
              <mxPoint x="1040" y="1455" />
              <mxPoint x="1040" y="1680" />
              <mxPoint x="640" y="1680" />
            </Array>
          </mxGeometry>
        </mxCell>
        <mxCell id="NOhWeFgQq2WazlrZW2lu-127" value="实体：Chapter" style="rounded=0;whiteSpace=wrap;html=1;fontSize=16;fontColor=#FFFFFF;strokeColor=#000059;fillColor=#000059;glass=0;shadow=1;sketch=0;" parent="1" vertex="1">
          <mxGeometry x="840" y="1440" width="120" height="60" as="geometry" />
        </mxCell>
        <mxCell id="NOhWeFgQq2WazlrZW2lu-249" style="edgeStyle=orthogonalEdgeStyle;rounded=1;orthogonalLoop=1;jettySize=auto;html=1;exitX=0;exitY=0.5;exitDx=0;exitDy=0;entryX=1;entryY=0.5;entryDx=0;entryDy=0;dashed=1;fontSize=16;fontColor=#000000;endSize=6;strokeColor=#FF0000;strokeWidth=1;" parent="1" source="NOhWeFgQq2WazlrZW2lu-133" target="NOhWeFgQq2WazlrZW2lu-125" edge="1">
          <mxGeometry relative="1" as="geometry" />
        </mxCell>
        <mxCell id="NOhWeFgQq2WazlrZW2lu-133" value="实体：Text" style="rounded=0;whiteSpace=wrap;html=1;fontSize=16;fontColor=#FFFFFF;strokeColor=#000059;fillColor=#000059;glass=0;shadow=1;sketch=0;" parent="1" vertex="1">
          <mxGeometry x="840" y="1560" width="120" height="60" as="geometry" />
        </mxCell>
        <mxCell id="NOhWeFgQq2WazlrZW2lu-248" style="edgeStyle=orthogonalEdgeStyle;rounded=1;orthogonalLoop=1;jettySize=auto;html=1;exitX=1;exitY=0.5;exitDx=0;exitDy=0;entryX=0;entryY=0.5;entryDx=0;entryDy=0;dashed=1;fontSize=16;fontColor=#000000;endSize=6;strokeColor=#FF0000;strokeWidth=1;" parent="1" source="NOhWeFgQq2WazlrZW2lu-174" target="NOhWeFgQq2WazlrZW2lu-125" edge="1">
          <mxGeometry relative="1" as="geometry" />
        </mxCell>
        <mxCell id="NOhWeFgQq2WazlrZW2lu-174" value="实体：Desc" style="rounded=0;whiteSpace=wrap;html=1;fontSize=16;fontColor=#FFFFFF;strokeColor=#000059;fillColor=#000059;glass=0;shadow=1;sketch=0;" parent="1" vertex="1">
          <mxGeometry x="200" y="1561" width="120" height="60" as="geometry" />
        </mxCell>
        <mxCell id="NOhWeFgQq2WazlrZW2lu-250" style="edgeStyle=orthogonalEdgeStyle;rounded=1;orthogonalLoop=1;jettySize=auto;html=1;exitX=1;exitY=0.5;exitDx=0;exitDy=0;entryX=0.75;entryY=1;entryDx=0;entryDy=0;dashed=1;fontSize=16;fontColor=#000000;endSize=6;strokeColor=#FF0000;strokeWidth=1;" parent="1" source="NOhWeFgQq2WazlrZW2lu-190" target="NOhWeFgQq2WazlrZW2lu-125" edge="1">
          <mxGeometry relative="1" as="geometry">
            <Array as="points">
              <mxPoint x="1080" y="1350" />
              <mxPoint x="1080" y="1720" />
              <mxPoint x="610" y="1720" />
            </Array>
          </mxGeometry>
        </mxCell>
        <mxCell id="NOhWeFgQq2WazlrZW2lu-190" value="实体：Folder" style="rounded=0;whiteSpace=wrap;html=1;fontSize=16;fontColor=#FFFFFF;strokeColor=#000059;fillColor=#000059;glass=0;shadow=1;sketch=0;" parent="1" vertex="1">
          <mxGeometry x="840" y="1320" width="120" height="60" as="geometry" />
        </mxCell>
      </root>
    </mxGraphModel>
  </diagram>
</mxfile>
